<svg xmlns="http://www.w3.org/2000/svg" style="display:none">
  <symbol id="icon-layers" viewBox="0 0 24 24">
    <path d="M12 3 2 9l10 6 10-6-10-6Zm0 8L4.5 7.5M12 13l10-6" fill="none" stroke="currentColor" stroke-width="1.6" stroke-linecap="round" stroke-linejoin="round"/>
    <path d="M2 14l10 6 10-6" fill="none" stroke="currentColor" stroke-width="1.6" stroke-linecap="round" stroke-linejoin="round"/>
  </symbol>
  <symbol id="icon-cpu" viewBox="0 0 24 24">
    <rect x="7" y="7" width="10" height="10" rx="2" fill="none" stroke="currentColor" stroke-width="1.6"/>
    <path d="M9 1v4M15 1v4M9 19v4M15 19v4M1 9h4M1 15h4M19 9h4M19 15h4" fill="none" stroke="currentColor" stroke-width="1.6" stroke-linecap="round"/>
  </symbol>
  <symbol id="icon-target" viewBox="0 0 24 24">
    <circle cx="12" cy="12" r="8" fill="none" stroke="currentColor" stroke-width="1.6"/>
    <circle cx="12" cy="12" r="3" fill="none" stroke="currentColor" stroke-width="1.6"/>
    <path d="M12 2v3M12 19v3M2 12h3M19 12h3" fill="none" stroke="currentColor" stroke-width="1.6" stroke-linecap="round"/>
  </symbol>
  <symbol id="icon-box" viewBox="0 0 24 24">
    <path d="M3 7.5 12 3l9 4.5v9L12 21l-9-4.5v-9Z" fill="none" stroke="currentColor" stroke-width="1.6" stroke-linejoin="round"/>
    <path d="M12 21v-9M3 7.5l9 4.5 9-4.5" fill="none" stroke="currentColor" stroke-width="1.6" stroke-linecap="round"/>
  </symbol>
  <symbol id="icon-rocket" viewBox="0 0 24 24">
    <path d="M14 4c3.5.4 6.1 3 6.5 6.5L12 19l-5 1 1-5 6-8Z" fill="none" stroke="currentColor" stroke-width="1.6" stroke-linejoin="round"/>
    <circle cx="15.5" cy="8.5" r="1.8" fill="none" stroke="currentColor" stroke-width="1.6"/>
    <path d="M6 18c-1.5-.2-2.8-1.5-3-3 1.3-1.2 2.7-1.7 4.3-1.7" fill="none" stroke="currentColor" stroke-width="1.6" stroke-linecap="round"/>
  </symbol>
</svg>
